<?xml version="1.0" encoding="utf-8"?>
<!-- Generator: Adobe Illustrator 20.0.0, SVG Export Plug-In . SVG Version: 6.00 Build 0)  -->
<svg version="1.1" id="Layer_1" xmlns="http://www.w3.org/2000/svg" xmlns:xlink="http://www.w3.org/1999/xlink" x="0px" y="0px"
	 viewBox="0 0 118.6 138.8" style="enable-background:new 0 0 118.6 138.8;" xml:space="preserve">
<style type="text/css">
	.st0{fill:#304345;}
</style>
<path class="st0" d="M84.5,32.5c-7.5,0-13.6,6.1-13.6,13.6c0,7.5,6.1,13.6,13.6,13.6c7.5,0,13.6-6.1,13.6-13.6
	C98,38.6,91.9,32.5,84.5,32.5z M84.5,49.8c-2,0-3.7-1.7-3.7-3.7c0-2,1.7-3.7,3.7-3.7c2,0,3.7,1.7,3.7,3.7
	C88.2,48.1,86.5,49.8,84.5,49.8z"/>
<path class="st0" d="M34.2,32.5c-7.5,0-13.6,6.1-13.6,13.6c0,7.5,6.1,13.6,13.6,13.6c7.5,0,13.6-6.1,13.6-13.6
	C47.7,38.6,41.6,32.5,34.2,32.5z M34.2,49.8c-2,0-3.7-1.7-3.7-3.7c0-2,1.7-3.7,3.7-3.7c2,0,3.7,1.7,3.7,3.7
	C37.9,48.1,36.2,49.8,34.2,49.8z"/>
<g>
	<path class="st0" d="M52.9,53.9c0.9,3.9,2.1,7.4,3.7,10.4c0.4,0.7,0.8,1.4,1.2,2.1c0.5,0.8,1,1.5,1.6,2.2c0.5-0.7,1.1-1.4,1.6-2.2
		c0.4-0.6,0.8-1.4,1.2-2.1c1.6-3,2.8-6.5,3.7-10.4c-1.3-3.7-3.6-4.3-6.4-6.5C56.5,49.7,54.2,50.2,52.9,53.9z M59.3,9.1
		c0,0,0.5-0.1,1.4-1c1.9-1.9,4.2-3.5,6.5-4.5c-2.5-0.6-5.1-0.9-7.8-0.9c-2.7,0-5.3,0.3-7.8,0.9c2.2,1,4.5,2.6,6.4,4.6
		C58.9,9,59.3,9.1,59.3,9.1z M101.5,16.5c-1.9,1-3.8,2-5.5,3c-0.1,0.1-0.2,0.1-0.3,0.2c-0.5,0.3-1,0.6-1.5,0.9
		c-0.5,0.3-1,0.6-1.5,0.9c-0.8,0.5-1.6,1-2.3,1.5c1.5,0.4,3,0.9,4.4,1.6c1.1,0.5,2.1,1.1,3.1,1.8c1.2,0.8,2.3,1.7,3.4,2.8
		c4.3,4.3,7,10.3,7,16.9c0,3.2-0.6,6.2-1.8,9c-0.6,1.4-1.3,2.7-2.1,4c-0.6,1-1.4,1.9-2.2,2.8c-0.9,1-1.8,1.9-2.8,2.7
		c-3.8,3.1-8.5,5-13.6,5.3c-0.5,0-0.9,0.1-1.4,0.1c-2.9,0-5.7-0.5-8.3-1.5c-2.8-1-6.7-2.5-10.5-3.4c-0.6,1.2-1.2,2.3-1.8,3.3
		c-0.3,0.5-0.6,1-0.9,1.4c-0.3,0.4-0.6,0.8-0.8,1.1l-2.7,3.4l-2.7-3.4c-0.3-0.4-0.6-0.7-0.8-1.1c-0.3-0.4-0.6-0.9-0.9-1.4
		c-0.6-1-1.2-2.1-1.8-3.3c-3.9,0.9-7.8,2.3-10.5,3.4c-2.6,1-5.3,1.5-8.3,1.5c-0.5,0-0.9,0-1.4-0.1c-5.2-0.3-9.9-2.2-13.6-5.3
		c-1-0.8-1.9-1.7-2.8-2.7C15.6,61,14.9,60,14.2,59c-0.8-1.3-1.5-2.6-2.1-4c-1.1-2.8-1.8-5.8-1.8-9c0-6.6,2.7-12.6,7-16.9
		c1-1,2.2-1.9,3.3-2.8c1-0.7,2-1.2,3.1-1.8c1.4-0.7,2.9-1.2,4.4-1.6c-0.8-0.5-1.5-1-2.3-1.5c-0.5-0.3-1-0.6-1.5-0.9
		c-0.5-0.3-1-0.6-1.5-0.9c-0.1-0.1-0.2-0.1-0.3-0.2c-1.7-1-3.6-2-5.5-3C6.9,22.4,0,33.4,0,46.1c0,8.4,3,16,8,22c0,0,0,0-0.1,0.1
		c-7.2,6.9-4.7,21.5,5.4,32.5c7.4,8.1,16.8,16.7,24.2,18c-10.1-11.1-17.9-28.3-22.1-44.1c0.7,0.5,9,26.2,26.7,43.8
		c0.2,0.2,0.4,0.4,0.6,0.6c0.1,0,0.2,0,0.3,0c1.2,0,2.3,0.2,3.4,0.7c1.1-0.5,2.2-0.7,3.4-0.7c4.5,0,8.1,3.4,8.6,7.8
		c0.3,0,0.6,0.1,0.9,0.1c0.3,0,0.6,0,0.9-0.1c0.5-4.4,4.1-7.8,8.6-7.8c1.2,0,2.3,0.2,3.4,0.7c1.1-0.5,2.2-0.7,3.4-0.7
		c0.1,0,0.2,0,0.3,0c0.2-0.2,0.4-0.4,0.6-0.6c17.2-17,26-43.3,26.7-43.8c-4.2,15.7-12,33-22.1,44.1c7.4-1.4,16.8-10,24.2-18
		c10.1-11,12.5-25.6,5.4-32.5c0,0,0,0-0.1-0.1c5-5.9,8-13.6,8-22C118.6,33.4,111.7,22.4,101.5,16.5z M82.4,122.5
		c-1.3,0-2.5,0.5-3.4,1.3c-0.6-0.5-1.3-0.9-2-1.1c-0.4-0.1-0.9-0.2-1.4-0.2c-0.6,0-1.1,0.1-1.6,0.3c-0.7,0.2-1.3,0.6-1.8,1
		c-0.4-0.3-0.8-0.6-1.3-0.8c-0.6-0.3-1.3-0.5-2.1-0.5c-2.3,0-4.3,1.6-4.9,3.7c-0.1,0.5-0.2,0.9-0.2,1.5c0,0.1,0,0.2,0,0.4
		c0.1,0.5,0.2,1.1,0.4,1.7c1.3,3.6,4.7,9,4.7,9s1.9-3,3.4-6c1.5,3,3.4,6,3.4,6s1.9-3,3.4-6c1.5,3,3.4,6,3.4,6s5.2-8.3,5.2-11.1
		C87.5,124.8,85.2,122.5,82.4,122.5z M49.8,122.5c-0.7,0-1.4,0.2-2.1,0.5c-0.5,0.2-0.9,0.5-1.3,0.8c-0.5-0.5-1.1-0.8-1.8-1
		c-0.5-0.2-1-0.3-1.6-0.3c-0.5,0-0.9,0.1-1.4,0.2c-0.7,0.2-1.4,0.6-2,1.1c-0.9-0.8-2.1-1.3-3.4-1.3c-2.9,0-5.2,2.3-5.2,5.2
		c0,2.8,5.2,11.1,5.2,11.1s1.9-3,3.4-6c1.5,3,3.4,6,3.4,6s1.9-3,3.4-6c1.5,3,3.4,6,3.4,6s3.4-5.5,4.7-9c0.2-0.7,0.4-1.2,0.4-1.7
		c0-0.1,0-0.3,0-0.4c0-0.5-0.1-1-0.2-1.5C54.1,124.1,52.1,122.5,49.8,122.5z"/>
	<path class="st0" d="M111.1,0.3c-13,4.9-18.2,5.6-21.6,5.6c-1.8,0-3.4-0.2-5-0.4C83.4,5.3,82.3,5.1,81,5c-1.2-0.1-2.3-0.1-3.4-0.1
		l-0.4,0c-1.2,0-2.5,0.1-3.9,0.2c-0.4,0-0.9,0.1-1.3,0.1c-2.9,0.3-6.4,2.2-9.2,5c-2.6,2.6-4.4,2.6-7,0c-2.8-2.8-6.3-4.7-9.2-5
		c-0.5,0-0.9-0.1-1.3-0.1c-1.4-0.1-2.7-0.2-3.9-0.2l-0.4,0c-1.1,0-2.2,0-3.4,0.1c-1.3,0.1-2.5,0.3-3.6,0.4c-1.6,0.2-3.2,0.4-5,0.4
		C24.3,5.9,18,4.3,7.5,0.3L6.8,0l0.6,8.8l0.4,0.1c7.4,1.8,13.8,6.1,16.2,7.8c0.4,0.3,0.7,0.5,0.9,0.6c0.5,0.3,1,0.6,1.5,0.9l1.5,1
		c1.7,1.1,3.5,2.3,5.2,3.6c4.5,3.2,8.6,4.6,13.4,4.6c2.1,0,4.2-0.3,6.2-0.5c2.1-0.3,4.3-0.5,6.6-0.5c2.3,0,4.5,0.3,6.6,0.5
		c2,0.3,4.1,0.5,6.2,0.5c4.8,0,9-1.4,13.4-4.6c1.8-1.3,3.5-2.4,5.2-3.6c0.4-0.2,0.7-0.5,1.1-0.7l0.7-0.4c0.4-0.2,0.8-0.5,1.2-0.7
		c0.2-0.1,0.5-0.3,0.8-0.5c2.1-1.4,7.8-5.2,15.3-7.1l0.3-0.1L112,0L111.1,0.3z"/>
</g>
</svg>
