<?xml version="1.0" encoding="utf-8"?>
<!-- Generator: Adobe Illustrator 20.0.0, SVG Export Plug-In . SVG Version: 6.00 Build 0)  -->
<svg version="1.1" id="Layer_1" xmlns="http://www.w3.org/2000/svg" xmlns:xlink="http://www.w3.org/1999/xlink" x="0px" y="0px"
	 viewBox="0 0 216.6 199.2" style="enable-background:new 0 0 216.6 199.2;" xml:space="preserve">
<style type="text/css">
	.st0{fill:#A5C7BE;}
</style>
<g>
	<path class="st0" d="M158.5,134.1C152,109.8,118,86,118,86s-17.6,37.6-11.1,62c6.5,24.4,40.6,48.1,40.6,48.1
		S165.1,158.5,158.5,134.1z"/>
	<path class="st0" d="M174.8,105.9c-16-16-53.3-19.3-53.3-19.3s3.2,37.2,19.3,53.3s53.3,19.3,53.3,19.3S190.8,121.9,174.8,105.9z"/>
	<path class="st0" d="M178,76.6c-19.5-5.2-49.6,8.9-49.6,8.9s19.1,27.2,38.6,32.4c19.5,5.2,49.6-8.9,49.6-8.9S197.5,81.8,178,76.6z"
		/>
	<path class="st0" d="M167.6,49.6c-17,4.6-33.6,28.5-33.6,28.5s26.4,12.3,43.4,7.6c17-4.6,33.6-28.5,33.6-28.5S184.6,45,167.6,49.6z
		"/>
	<path class="st0" d="M146.4,30.9c-10.7,10.7-12.8,35.5-12.8,35.5s24.8-2.1,35.5-12.8c10.7-10.7,12.8-35.5,12.8-35.5
		S157.1,20.2,146.4,30.9z"/>
	<path class="st0" d="M119.3,24.1c-3.3,12.2,5.5,31,5.5,31s17-11.9,20.3-24.1c3.3-12.2-5.5-31-5.5-31S122.6,11.9,119.3,24.1z"/>
	<path class="st0" d="M97.5,28.1c1.7,9.9,14.3,20.7,14.3,20.7s8.4-14.3,6.8-24.3c-1.7-9.9-14.3-20.7-14.3-20.7S95.8,18.2,97.5,28.1z
		"/>
	<path class="st0" d="M82.3,37c3.7,6.6,15.4,10.9,15.4,10.9S100,35.6,96.3,29c-3.7-6.6-15.4-10.9-15.4-10.9S78.6,30.4,82.3,37z"/>
	<path class="st0" d="M72.7,46.9c3.6,3.5,11.9,4,11.9,4s-0.9-8.3-4.5-11.8c-3.6-3.5-11.9-4-11.9-4S69,43.4,72.7,46.9z"/>
	<path class="st0" d="M66.7,56.4C68.9,57.7,73,57,73,57s-1.4-3.9-3.6-5.2c-2.2-1.3-6.3-0.5-6.3-0.5S64.6,55.2,66.7,56.4z"/>
	<path class="st0" d="M74.4,148.3C99.2,130.9,112,82.7,112,82.7s-49.7-4.4-74.4,13S0,161.3,0,161.3S49.7,165.6,74.4,148.3z"/>
	<path class="st0" d="M117,153.3c11-25.5-2.1-69.2-2.1-69.2S74,104.5,63,129.9c-11,25.5,2.1,69.2,2.1,69.2S106,178.7,117,153.3z"/>
</g>
</svg>
