<?xml version="1.0" encoding="utf-8"?>
<!-- Generator: Adobe Illustrator 20.0.0, SVG Export Plug-In . SVG Version: 6.00 Build 0)  -->
<svg version="1.1" xmlns="http://www.w3.org/2000/svg" xmlns:xlink="http://www.w3.org/1999/xlink" x="0px" y="0px"
	 viewBox="0 0 197.3 199.8" style="enable-background:new 0 0 197.3 199.8;" xml:space="preserve">
<style type="text/css">
	.st0{fill:#DA5A44;stroke:#DA5A44;stroke-width:22.871;stroke-miterlimit:10;}
	.st1{fill:#DA5A44;stroke:#DA5A44;stroke-width:2.475;stroke-miterlimit:10;}
	.st2{fill:#59595A;}
	.st3{fill:none;}
	.st4{display:none;fill:#DA5A44;stroke:#DA5A44;stroke-width:22.871;stroke-miterlimit:10;}
	.st5{fill:#DA5A44;}
	.st6{fill:none;stroke:#DA5A44;stroke-miterlimit:10;}
	.st7{fill:none;stroke:#DA5A44;stroke-width:22.871;stroke-miterlimit:10;}
	.st8{fill:none;stroke:#DA5A44;stroke-width:16;stroke-miterlimit:10;}
	.st9{fill:#D9C02C;}
	.st10{fill:none;stroke:#D9C02C;stroke-miterlimit:10;}
	.st11{fill:none;stroke:#D9C02C;stroke-width:22.871;stroke-miterlimit:10;}
</style>
<g id="_x23_2">
	<g id="Outer_Square_1_">
		<line class="st0" x1="292.5" y1="-340.5" x2="292.5" y2="-356.6"/>
		<line class="st0" x1="292.5" y1="-504.1" x2="292.5" y2="-520.2"/>
		<line class="st1" x1="481.1" y1="-341.8" x2="281.1" y2="-341.8"/>
		<line class="st0" x1="469.7" y1="-518.9" x2="469.7" y2="-341.8"/>
		<line class="st1" x1="281.1" y1="-518.9" x2="481.1" y2="-518.9"/>
		<line class="st0" x1="481.1" y1="-345.8" x2="281.1" y2="-345.8"/>
		<line class="st0" x1="281.1" y1="-514.9" x2="481.1" y2="-514.9"/>
	</g>
	<g id="K_in_full_2_">
		<polygon class="st2" points="359.9,-359 385.2,-359 327.7,-437.2 382.1,-501.7 379.2,-501.7 312.3,-422.8 313.7,-421 313.7,-421 
					"/>
		<polygon class="st2" points="304,-501.2 281.1,-501.2 281.1,-359 304,-359 304,-414.3 304,-417.6 		"/>
	</g>
	<line id="Length_Measure" class="st3" x1="46" y1="-439.2" x2="47.4" y2="-437.2"/>
</g>
<g id="_x23_1">
	<g id="Outer_Square_6_">
		<line class="st0" x1="12.3" y1="-340.5" x2="12.3" y2="-356.6"/>
		<line class="st0" x1="12.3" y1="-504.1" x2="12.3" y2="-520.2"/>
		<line class="st1" x1="200.9" y1="-341.8" x2="0.9" y2="-341.8"/>
		<line class="st0" x1="189.5" y1="-518.9" x2="189.5" y2="-341.8"/>
		<line class="st1" x1="0.9" y1="-518.9" x2="200.9" y2="-518.9"/>
		<line class="st4" x1="200.9" y1="-345.8" x2="0.9" y2="-345.8"/>
		<line class="st4" x1="0.9" y1="-514.9" x2="200.9" y2="-514.9"/>
	</g>
	<g id="K_in_full_11_">
		<polygon class="st5" points="79.7,-359 105,-359 47.4,-437.2 101.9,-501.7 99,-501.7 32.1,-422.8 33.4,-421 33.4,-421 		"/>
		<polygon class="st5" points="23.7,-501.2 0.9,-501.2 0.9,-359 23.7,-359 23.7,-414.3 23.7,-417.6 		"/>
	</g>
</g>
<g id="_x23_3">
	<g id="K_in_full_3_">
		<g>
			<g id="K_6_">
				<g>
					<path class="st5" d="M76.9-101.2c1,1.3,3.1,2.4,4.8,2.4H101c1.7,0,2.2-1.1,1.2-2.4l-54-73.3c-1-1.3-0.9-3.4,0.2-4.7L99-239.2
						c1.1-1.3,1.3-2.3,0.5-2.3s-2.3,1-3.4,2.3l-63,74.3c-1.1,1.3-1.6,2.7-1.3,3.2c0.4,0.5,1.5,2,2.5,3.3L76.9-101.2z"/>
					<path class="st6" d="M76.9-101.2c1,1.3,3.1,2.4,4.8,2.4H101c1.7,0,2.2-1.1,1.2-2.4l-54-73.3c-1-1.3-0.9-3.4,0.2-4.7L99-239.2
						c1.1-1.3,1.3-2.3,0.5-2.3s-2.3,1-3.4,2.3l-63,74.3c-1.1,1.3-1.6,2.7-1.3,3.2c0.4,0.5,1.5,2,2.5,3.3L76.9-101.2z"/>
				</g>
				<g>
					<path class="st5" d="M22.7-238c0-1.6-1.4-3-3-3H2.9c-1.7,0-3,1.4-3,3v136.2c0,1.7,1.3,3,3,3h16.9c1.6,0,3-1.3,3-3v-49.3
						c0-1.7,0-3.7,0-4.6c0-0.9,0-3,0-4.6V-238z"/>
					<path class="st5" d="M19.7-241H2.9c-1.6,0-3,1.4-3,3v136.2c0,1.7,1.4,3,3,3h16.9c1.6,0,3-1.3,3-3v-49.3c0-1.6,0-3.7,0-4.6
						c0-0.9,0-3,0-4.6V-238C22.7-239.6,21.4-241,19.7-241L19.7-241z"/>
				</g>
			</g>
		</g>
	</g>
	<g id="Outer_Square_2_">
		<g>
			<g>
				<line class="st5" x1="185.9" y1="-258.3" x2="185.9" y2="-83.7"/>
				<line class="st7" x1="185.9" y1="-258.3" x2="185.9" y2="-83.7"/>
			</g>
			<g>
				<path class="st5" d="M197.8-249.4c0,1.6-1.4,3-3,3H3c-1.6,0-3-1.4-3-3v-17.8c0-1.6,1.4-3,3-3h191.8c1.6,0,3,1.4,3,3V-249.4z"/>
			</g>
			<g>
				<path class="st5" d="M197.8-73.4c0,1.7-1.4,3-3,3H3c-1.6,0-3-1.3-3-3v-17.8c0-1.7,1.4-3,3-3h191.8c1.6,0,3,1.3,3,3V-73.4z"/>
			</g>
		</g>
	</g>
</g>
<g id="_x23_4">
	<g id="K_in_full_4_">
		<g>
			<g id="K_2_">
				<g>
					<path class="st5" d="M365.1-101.2c1,1.3,3.1,2.4,4.8,2.4h19.3c1.6,0,2.2-1.1,1.2-2.4l-54-73.3c-1-1.3-0.9-3.4,0.2-4.7
						l50.6-59.9c1.1-1.3,1.3-2.3,0.5-2.3s-2.3,1-3.4,2.3l-63,74.3c-1.1,1.3-1.6,2.7-1.3,3.2c0.4,0.5,1.5,2,2.5,3.3L365.1-101.2z"/>
					<path class="st6" d="M365.1-101.2c1,1.3,3.1,2.4,4.8,2.4h19.3c1.6,0,2.2-1.1,1.2-2.4l-54-73.3c-1-1.3-0.9-3.4,0.2-4.7
						l50.6-59.9c1.1-1.3,1.3-2.3,0.5-2.3s-2.3,1-3.4,2.3l-63,74.3c-1.1,1.3-1.6,2.7-1.3,3.2c0.4,0.5,1.5,2,2.5,3.3L365.1-101.2z"/>
				</g>
			</g>
		</g>
	</g>
	<path class="st8" d="M326.6-101.3c-20.2-16.1-33.1-40.8-33.1-68.6c0-27.8,12.9-52.6,33.1-68.6"/>
	<g>
		<path class="st8" d="M326.6-238.5c15-11.9,33.9-19,54.5-19c48.4,0,87.6,39.2,87.6,87.6s-39.2,87.6-87.6,87.6
			c-20.6,0-39.6-7.1-54.5-19"/>
	</g>
</g>
<g id="_x23_5">
	<g id="K_in_full_1_">
		<g>
			<g id="K_10_">
				<g>
					<path class="st9" d="M76.9,169c1,1.3,3.1,2.4,4.8,2.4H101c1.7,0,2.2-1.1,1.2-2.4l-54-73.3c-1-1.3-0.9-3.4,0.2-4.7L99,31
						c1.1-1.3,1.3-2.3,0.5-2.3s-2.3,1-3.4,2.3l-63,74.3c-1.1,1.3-1.6,2.7-1.3,3.2c0.4,0.5,1.5,2,2.5,3.3L76.9,169z"/>
					<path class="st10" d="M76.9,169c1,1.3,3.1,2.4,4.8,2.4H101c1.7,0,2.2-1.1,1.2-2.4l-54-73.3c-1-1.3-0.9-3.4,0.2-4.7L99,31
						c1.1-1.3,1.3-2.3,0.5-2.3s-2.3,1-3.4,2.3l-63,74.3c-1.1,1.3-1.6,2.7-1.3,3.2c0.4,0.5,1.5,2,2.5,3.3L76.9,169z"/>
				</g>
				<g>
					<path class="st9" d="M22.9,14.9c0-1.7-1.4-3-3-3H3c-1.6,0-3,1.3-3,3v170.8c0,1.7,1.4,3,3,3h16.9c1.6,0,3-1.3,3-3v-62.8
						c0-1.7,0-3.9,0-5s0-3.4,0-5V14.9z"/>
					<path class="st9" d="M19.9,11.9H3c-1.6,0-3,1.3-3,3v170.8c0,1.7,1.4,3,3,3h16.9c1.7,0,3-1.3,3-3v-62.8c0-1.6,0-3.9,0-5
						c0-1.1,0-3.4,0-5v-98C22.9,13.2,21.5,11.9,19.9,11.9L19.9,11.9z"/>
				</g>
			</g>
		</g>
	</g>
	<g id="Outer_Square_3_">
		<g>
			<g>
				<line class="st9" x1="185.9" y1="11.9" x2="185.9" y2="186.6"/>
				<line class="st11" x1="185.9" y1="11.9" x2="185.9" y2="186.6"/>
			</g>
			<g>
				<path class="st9" d="M197.3,20.8c0,1.6-1.3,3-3,3H3c-1.6,0-3-1.4-3-3V3c0-1.6,1.4-3,3-3h191.3c1.7,0,3,1.4,3,3V20.8z"/>
			</g>
			<g>
				<path class="st9" d="M197.3,196.8c0,1.6-1.4,3-3,3H3c-1.6,0-3-1.4-3-3v-17.8c0-1.6,1.4-3,3-3h191.3c1.6,0,3,1.4,3,3V196.8z"/>
			</g>
		</g>
	</g>
</g>
</svg>
