<?xml version="1.0" encoding="utf-8"?>
<!-- Generator: Adobe Illustrator 20.0.0, SVG Export Plug-In . SVG Version: 6.00 Build 0)  -->
<svg version="1.1" id="Layer_1" xmlns="http://www.w3.org/2000/svg" xmlns:xlink="http://www.w3.org/1999/xlink" x="0px" y="0px"
	 viewBox="0 0 1308.6 1154.4" style="enable-background:new 0 0 1308.6 1154.4;" xml:space="preserve">
<style type="text/css">
	.st0{fill:#304345;}
	.st1{filter:url(#Adobe_OpacityMaskFilter);}
	.st2{opacity:0.75;mask:url(#SVGID_1_);}
	.st3{fill:#8C191B;}
	.st4{filter:url(#Adobe_OpacityMaskFilter_1_);}
	.st5{opacity:0.75;mask:url(#SVGID_2_);}
</style>
<g>
	<g>
		<g>
			<g>
				<path class="st0" d="M286,78.4c0-0.1-0.1-0.4-0.1-0.4c0,0.5-0.1,1.1-0.1,1.7C285.8,79.3,285.9,78.9,286,78.4z"/>
			</g>
			<defs>
				<filter id="Adobe_OpacityMaskFilter" filterUnits="userSpaceOnUse" x="285.7" y="78" width="0.2" height="1.7">
					
						<feColorMatrix  type="matrix" values="-1 0 0 0 1  0 -1 0 0 1  0 0 -1 0 1  0 0 0 1 0" color-interpolation-filters="sRGB" result="source"/>
				</filter>
			</defs>
			<mask maskUnits="userSpaceOnUse" x="285.7" y="78" width="0.2" height="1.7" id="SVGID_1_">
				<g class="st1">
					
						<image style="overflow:visible;" width="18" height="24" xlink:href="C282AF95D6B55048.jpg"  transform="matrix(0.24 0 0 0.24 283.7446 76.0348)">
					</image>
				</g>
			</mask>
			<g class="st2">
				<path class="st3" d="M286,78.4c0-0.1-0.1-0.4-0.1-0.4c0,0.5-0.1,1.1-0.1,1.7C285.8,79.3,285.9,78.9,286,78.4z"/>
			</g>
		</g>
		<path class="st0" d="M471.7,69.1c9.1,15.7,15,32.1,18,48.2c6,22.9,15.8,50.8,27.4,80.8c45.7,14.2,97,21.8,151.2,20.5
			c43.1-1,84.1-7.4,121.8-18.1c12.4-31.2,22.6-60.2,28.7-83.3c3-16.1,9-32.5,18-48.2c11.8-20.4,27.2-36.7,44.3-48.5
			c2.6-1.8,5.2-3.2,7.9-4.8c0,0,0.1-0.1,0.1-0.1C830.7,51.1,747,77.5,662.9,79.4c-88,2-168.7-18.9-229.7-54.7
			C447.9,36,461.3,51,471.7,69.1z"/>
		<path class="st0" d="M1003,165c-9.1,15.7-20.3,29-32.7,39.7c-16.5,16.3-35.7,38.7-55.8,64c10.7,46.6,29.9,94.6,58,140.7
			c22.6,37.1,49,69.6,77.4,96.9c32.6-4.8,62.2-10.4,84.9-16.5c15.5-5.5,32.7-8.5,50.8-8.5c21.7,0,42,4.5,59.6,12.1
			c-56.5-35.9-117-96.3-155-158.5c-45.8-74.9-68.2-154.9-68-225.6C1019.8,127.7,1013.5,146.9,1003,165z"/>
		<path class="st0" d="M173.7,489.7c23.2,6.3,52.8,12,85.2,16.9c34.2-32.3,65.4-72.3,90.7-118.9c21.1-38.7,36.2-78.5,45.5-117.3
			c-1.1-1.6-2.1-3.1-3.2-4.7c-19.1-23.8-37.6-45-53.7-60.9c-12.5-10.7-23.7-24-32.7-39.7c-10.2-17.7-16.5-36.4-19.1-54.5
			c-1.5-10.4-1.7-20.6-0.7-30.4c-4,67.8-19.9,170-59.7,243.1C186.6,395.8,133,452.7,75.8,488.5c14.5-4.7,30.4-7.3,47.1-7.3
			C141,481.3,158.2,484.3,173.7,489.7z"/>
		<path class="st0" d="M1134.8,664.6c-22.4-6.1-51.6-11.6-83.7-16.4c-34.2,32.4-65.3,72.6-90.5,119.3c-20.9,38.7-36,80.4-45.3,119.2
			c2.9,3.7,5.9,7.3,8.7,10.9c16.6,20.4,32.4,38.4,46.2,52c12.5,10.7,23.7,24,32.7,39.8c9.3,16.1,15.3,32.9,18.3,49.4
			c1.8,10.3,2.4,20.5,1.8,30.4c3.3-41.8,23.9-168.3,61.2-237.4c39.7-73.6,94-131.2,151.8-167.1c-15.4,5.4-32.5,8.5-50.6,8.5
			C1167.5,673.1,1150.3,670.1,1134.8,664.6z"/>
		<g>
			<g>
				<path class="st0" d="M1022.5,1075.8c0.1,0.3,0.2,0.6,0.2,0.8c0-1.2,0.2-2.8,0.2-4.3C1022.8,1073.5,1022.6,1074.6,1022.5,1075.8z
					"/>
			</g>
			<defs>
				<filter id="Adobe_OpacityMaskFilter_1_" filterUnits="userSpaceOnUse" x="1022.5" y="1072.3" width="0.5" height="4.3">
					
						<feColorMatrix  type="matrix" values="-1 0 0 0 1  0 -1 0 0 1  0 0 -1 0 1  0 0 0 1 0" color-interpolation-filters="sRGB" result="source"/>
				</filter>
			</defs>
			<mask maskUnits="userSpaceOnUse" x="1022.5" y="1072.3" width="0.5" height="4.3" id="SVGID_2_">
				<g class="st4">
					
						<image style="overflow:visible;" width="19" height="35" xlink:href="C282AF95D6B55049.jpg"  transform="matrix(0.24 0 0 0.24 1020.4597 1070.3177)">
					</image>
				</g>
			</mask>
			<g class="st5">
				<path class="st3" d="M1022.5,1075.8c0.1,0.3,0.2,0.6,0.2,0.8c0-1.2,0.2-2.8,0.2-4.3C1022.8,1073.5,1022.6,1074.6,1022.5,1075.8z
					"/>
			</g>
		</g>
		<path class="st0" d="M869,1124.5c-12.2-10.6-23.2-23.7-32.1-39.2c-9.1-15.7-15-32.1-18-48.2c-5.7-21.7-15.1-48.5-26.4-77.5
			c-46.2-14.9-98.1-23-153.1-22.1c-43,0.8-83.9,6.9-121.6,17.3c-11.9,30.5-21.9,59-28,82.2c-3,16.2-8.9,32.6-18,48.3
			c-11.9,20.5-27.5,37-44.7,48.8c58.3-34.4,133.9-55.9,216.9-57.3c88.6-1.5,180.5,18.9,245.5,62.4c-0.1-0.1-0.3-0.3-0.5-0.6
			C882.1,1134.6,875.3,1130,869,1124.5z"/>
		<path class="st0" d="M285.9,1051.4c0.2-2.3,0.2-4.6,0.5-7c2.3-16.8,8-34.1,16.9-50.7c0.7-1.6,1.5-3,2.2-4.3
			c9-15.7,20.3-29,32.7-39.8c16.6-16.4,35.6-38.4,55.4-63.1c-10.4-46.7-29.4-94.9-57.4-141.2c-22.5-37.3-48.8-70.1-77.3-97.6
			c-32.4,4.9-62.1,10.6-85.3,16.9c-15.5,5.4-32.7,8.5-50.8,8.5c-23.2,0-44.9-5.1-63.5-13.8c-0.6,0-1.3,0-2,0
			c59.8,33,117.3,88.1,160.7,160c45.8,75.8,68.3,162,67.4,233.1C285.6,1052.3,285.7,1051.9,285.9,1051.4z"/>
	</g>
	<path class="st0" d="M779.7,458.3c-15.6-16.2-34.6-29.7-56.5-39.1c-9.5-4.1-19.2-7.2-28.9-9.5c-27-6.4-54.4-6-80.3,0.3
		c-31.9,7.8-61.4,24.6-84.4,48.7c-13.8,14.5-25.4,31.6-33.8,51.1c-2.6,6.2-4.9,12.4-6.8,18.7c-9.8,32.7-9.5,66.4-0.6,97.5
		c7.6,26.3,21.4,50.7,40.4,70.9c15.8,16.7,35.1,30.6,57.6,40.3c8.8,3.8,17.7,6.7,26.6,9c27.5,6.9,55.6,6.7,82,0.4
		c32.3-7.8,62.1-24.7,85.3-49.2c13.7-14.4,25.1-31.4,33.4-50.7c2.8-6.6,5.2-13.3,7.2-20.1c9.6-33,8.9-67.1-0.6-98.4
		C812.6,502.1,798.7,478.1,779.7,458.3z M741.7,615.5c-20.6,48-76.3,70.2-124.3,49.6c-48-20.6-70.2-76.3-49.6-124.3
		c20.6-48,76.3-70.2,124.3-49.5C740.2,511.9,762.4,567.5,741.7,615.5z"/>
</g>
<path class="st0" d="M471.7,69.1c9.1,15.7,15,32.1,18,48.2c6,22.9,15.8,50.8,27.4,80.8c29.2,74.8,70.6,161.8,96.8,211.9
	c-31.9,7.8-61.4,24.6-84.4,48.7c-30.8-48.6-86.8-129.9-137.6-193c-19.1-23.8-37.6-45-53.7-60.9c-12.5-10.7-23.7-24-32.7-39.7
	c-10.2-17.7-16.5-36.4-19.1-54.5c-5.9-42,8.2-81.1,40-99.5c0.2-0.1,0.5-0.3,0.7-0.4c0.2-0.2,0.5-0.3,0.7-0.4
	C359.4-8,399.9-1,433.2,24.6C447.9,36,461.3,51,471.7,69.1z M970.3,949.7c-13.8-13.7-29.6-31.7-46.2-52
	c-51-62.6-109.8-147.6-143.7-200.4c-23.2,24.5-53,41.5-85.3,49.2c27.3,52.9,68.6,139.9,97.3,213.1c11.3,29,20.7,55.8,26.4,77.5
	c3,16.1,9,32.6,18,48.2c8.9,15.4,19.9,28.6,32.1,39.2c34.3,29.8,78.2,39.1,111.8,19.7c0.2-0.2,0.5-0.3,0.7-0.4
	c0.2-0.1,0.5-0.3,0.7-0.4c33.1-19.1,47-60.7,39.2-104.6c-3-16.5-9-33.3-18.3-49.4C994,973.7,982.7,960.4,970.3,949.7z M258.8,506.6
	c-32.3-4.9-62-10.5-85.2-16.9c-15.5-5.5-32.7-8.5-50.8-8.5c-16.7,0-32.6,2.6-47.1,7.3C31.3,502.8,0,536.8,0,576.4c0,0.3,0,0.5,0,0.8
	c0,0.3,0,0.5,0,0.8c0,34.5,23.9,64.7,59.5,81.3c18.6,8.7,40.2,13.8,63.5,13.8c18.1,0,35.3-3.1,50.8-8.5c23.2-6.3,52.9-12,85.3-16.9
	c78.7-11.9,173.3-19.4,229.5-21.8c-8.9-31.1-9.3-64.9,0.6-97.5C432.9,526.1,337.8,518.6,258.8,506.6z M1246.6,493.9
	c-18-8-38.8-12.6-61-12.6c-18.1,0-35.3,3.1-50.8,8.5c-22.7,6.2-52.3,11.7-84.9,16.5c-77.3,11.5-171.3,18.9-229.6,21.7
	c9.5,31.3,10.2,65.4,0.6,98.4c58.6,2.8,152.9,10.3,230.2,21.9c32.1,4.8,61.3,10.2,83.7,16.4c15.5,5.4,32.7,8.5,50.8,8.5
	c18.1,0,35.1-3.1,50.6-8.5c42.6-14.9,72.4-48,72.4-86.6c0-0.3,0-0.5,0-0.8c0-0.3,0-0.5,0-0.8C1308.6,541,1283.6,510.3,1246.6,493.9z
	 M586.5,737.1c-22.5-9.7-41.8-23.5-57.6-40.3c-30.6,48.2-85.2,127.3-135.2,189.7c-19.8,24.7-38.8,46.7-55.4,63.1
	c-12.5,10.7-23.7,24-32.7,39.8c-10.3,17.9-16.6,36.8-19.1,55.1c-5.7,41.8,8.4,80.7,40,98.9c0.2,0.1,0.5,0.3,0.7,0.4
	c0.2,0.1,0.4,0.3,0.7,0.4c29.6,17.1,67.2,11.8,99.2-10.1c17.2-11.8,32.8-28.2,44.7-48.8c9.1-15.7,15-32.1,18-48.3
	c6.1-23.2,16.1-51.7,28-82.2c28.8-73.7,69.3-158.8,95.4-208.8C604.1,743.8,595.2,740.9,586.5,737.1z M982.1,11
	c-0.2-0.1-0.5-0.3-0.7-0.4c-0.2-0.2-0.5-0.3-0.7-0.4C951-7,913.2-1.6,881.1,20.5c-17,11.8-32.5,28.1-44.3,48.5
	c-9.1,15.7-15,32.1-18,48.2c-6.1,23.1-16.3,52.1-28.7,83.3c-28.9,72.8-69.3,157.7-95.9,209.1c9.7,2.3,19.4,5.4,28.9,9.5
	c21.9,9.4,40.9,22.9,56.5,39.1c31.7-49.4,85.8-128,134.8-189.6c20.1-25.3,39.3-47.7,55.8-64c12.5-10.7,23.7-24,32.7-39.7
	c10.5-18.1,16.8-37.3,19.2-55.8C1027.7,67.7,1013.6,29.1,982.1,11z"/>
</svg>
