<?xml version="1.0" encoding="utf-8"?>
<!-- Generator: Adobe Illustrator 20.0.0, SVG Export Plug-In . SVG Version: 6.00 Build 0)  -->
<svg version="1.1" id="Layer_1" xmlns="http://www.w3.org/2000/svg" xmlns:xlink="http://www.w3.org/1999/xlink" x="0px" y="0px"
	 viewBox="0 0 612 792" style="enable-background:new 0 0 612 792;" xml:space="preserve">
<style type="text/css">
	.st0{fill:#304345;}
</style>
<path class="st0" d="M55.5,346.5c0-110.8,90.1-200.9,201-200.9c110.8,0,200.9,90.1,200.9,200.9c0,72.1-38.3,135.2-95.5,170.7v48.2
	c81.3-39.4,137.6-122.7,137.6-218.9c0-134-109-243-243-243c-134,0-243,109-243,243c0,97.4,57.6,181.6,140.6,220.3v-47.7
	C95.1,484,55.5,419.9,55.5,346.5z"/>
<path class="st0" d="M532.3,649.9c-7.8,0-15.4,1.6-22.2,4.5c-10.5-21.6-32.5-36.7-58.1-36.7c-16.5,0-31.3,6.4-42.8,16.5
	c-13.1-13.2-31.2-21.5-51.3-21.5c-10.4,0-20.3,2.3-29.3,6.4v-40.5v-44.8V491c0-39.8-32.3-72.1-72.1-72.1
	c-39.8,0-72.1,32.4-72.1,72.1v42.8v44.8v190.3c0,11.8,9.6,21.4,21.4,21.4c11.8,0,21.4-9.6,21.4-21.4V587.7V545v-54
	c0-16.2,13.1-29.3,29.3-29.3c16.2,0,29.3,13.1,29.3,29.3v54v42.7v181.2c0,11.8,9.6,21.4,21.4,21.4c11.8,0,21.4-9.6,21.4-21.4v-84.1
	c0-16.2,13.2-29.3,29.3-29.3c16.2,0,29.4,13.1,29.4,29.3v84.1c0,11.8,9.6,21.4,21.4,21.4c11.8,0,21.4-9.6,21.4-21.4v-84.1
	c0-0.6-0.2-1.1-0.2-1.6c0-0.3,0.2-0.5,0.2-0.8c0-12.1,9.8-22,21.9-22c12.1,0,21.9,9.9,21.9,22v86.4c0,11.8,9.6,21.4,21.4,21.4
	c11.8,0,21.4-9.6,21.4-21.4v-60.7c0-8.6,7-15.6,15.5-15.6c8.6,0,15.5,7,15.5,15.6v51v9.7c0,11.8,9.6,21.4,21.4,21.4
	c11.8,0,21.4-9.6,21.4-21.4v-9.7v-51C590.6,676.1,564.4,649.9,532.3,649.9z"/>
<path class="st0" d="M261.7,47.6c156.3,0,293.4,137.3,293.4,293.8c0,12.1,9.8,21.9,21.9,21.9c12.1,0,21.9-9.8,21.9-21.9
	c0-179.8-157.5-337.6-337.1-337.6c-12.1,0-21.9,9.8-21.9,21.9C239.9,37.8,249.7,47.6,261.7,47.6z"/>
<path class="st0" d="M261.7,239.7c55.4,0,104,48.8,104,104.4c0,12.1,9.8,21.9,21.9,21.9c12.1,0,21.9-9.8,21.9-21.9
	c0-80.3-67.6-148.2-147.7-148.2c-12.1,0-21.9,9.8-21.9,21.9C239.9,229.9,249.7,239.7,261.7,239.7z"/>
</svg>
